<svg xmlns="http://www.w3.org/2000/svg" viewBox="0 0 60.001 75.007"><circle cx="30.03" cy="19.013" r="3"/><path d="M37.03 6h7c0-2.027-1.351-3.798-3.4-4.417l-.123-.037a36.122 36.122 0 0 0-20.957.001l-.318.096c-1.886.569-3.203 2.36-3.203 4.356h7a1 1 0 0 1 0 2h-7v2h5a1 1 0 0 1 0 2h-5v2h5a1 1 0 0 1 0 2h-5v2h5a1 1 0 0 1 0 2h-5v2h5a1 1 0 0 1 0 2h-5v2h5a1 1 0 0 1 0 2h-5v2h7a1 1 0 0 1 0 2h-7c0 2.071 1.352 3.871 3.363 4.479 1.201.363 2.417.639 3.638.877v10.606c0 1.124.922 2.038 2.056 2.038h1.944v9a1 1 0 0 0 1 1h4a1 1 0 0 0 1-1v-9h1.944a2.049 2.049 0 0 0 2.056-2.038V37.355a36.729 36.729 0 0 0 3.638-.877c2.011-.607 3.362-2.407 3.362-4.479h-7a1 1 0 0 1 0-2h7v-2h-5a1 1 0 0 1 0-2h5v-2h-5a1 1 0 0 1 0-2h5v-2h-5a1 1 0 0 1 0-2h5v-2h-5a1 1 0 0 1 0-2h5v-2h-5a1 1 0 0 1 0-2h5v-2h-7a1 1 0 0 1 0-1.999zm-7 8.013c2.757 0 5 2.243 5 5s-2.243 5-5 5-5-2.243-5-5 2.243-5 5-5zm1 43.987h-2v-8h2v8zm2-13a1 1 0 0 1-1 1h-4a1 1 0 0 1-1-1v-4a1 1 0 0 1 1-1h4a1 1 0 0 1 1 1v4z"/><path d="M29.03 42h2v2h-2zm18.293-29.707a.999.999 0 0 0 0 1.414c1.702 1.702 2.639 3.936 2.639 6.293s-.937 4.591-2.639 6.293a.999.999 0 1 0 1.414 1.414c2.08-2.079 3.225-4.816 3.225-7.707s-1.145-5.628-3.225-7.707a.999.999 0 0 0-1.414 0zm7.382-4.031a1 1 0 1 0-1.349 1.477c2.999 2.74 4.659 6.352 4.675 10.17.016 3.862-1.646 7.541-4.681 10.358a1.001 1.001 0 0 0 1.362 1.466c3.449-3.203 5.338-7.405 5.32-11.833-.019-4.383-1.911-8.517-5.327-11.638zm-41.967 4.031a.999.999 0 0 0-1.414 0c-4.322 4.322-4.322 11.092 0 15.414a.997.997 0 0 0 1.414 0 .999.999 0 0 0 0-1.414c-3.529-3.529-3.529-9.057 0-12.586a1 1 0 0 0 0-1.414z"/><path d="M2.03 19.909c.016-3.818 1.676-7.431 4.675-10.17a1 1 0 1 0-1.35-1.477C1.938 11.384.047 15.517.029 19.901.011 24.328 1.9 28.53 5.349 31.734a.998.998 0 0 0 1.414-.052 1.002 1.002 0 0 0-.052-1.414c-3.034-2.819-4.696-6.497-4.681-10.359z"/><text y="75.006" font-size="5" font-weight="bold" font-family="'Helvetica Neue', Helvetica, Arial-Unicode, Arial, Sans-serif">Created by Prettycons</text><text y="80.006" font-size="5" font-weight="bold" font-family="'Helvetica Neue', Helvetica, Arial-Unicode, Arial, Sans-serif">from the Noun Project</text></svg>