<svg xmlns="http://www.w3.org/2000/svg" viewBox="0 0 100 125"><path d="M87.31 37.88H69.18a4.218 4.218 0 0 0-3.38-3.38v-2.2c0-1.71-1.39-3.09-3.09-3.09-.42 0-.77.35-.77.77s.35.77.77.77c.85 0 1.55.69 1.55 1.55v2.2a4.22 4.22 0 0 0-3.38 3.38H39.12a4.218 4.218 0 0 0-3.38-3.38v-2.2c0-.86.69-1.55 1.55-1.55.42 0 .77-.35.77-.77s-.35-.77-.77-.77c-1.7 0-3.09 1.38-3.09 3.09v2.2a4.218 4.218 0 0 0-3.38 3.38H12.69a.77.77 0 0 0-.77.77v14.88c0 3.25 2.35 5.96 5.43 6.529v35.49c0 .431.35.771.77.771h63.76c.42 0 .771-.34.771-.771V60.06c3.08-.569 5.43-3.279 5.43-6.529V38.65a.772.772 0 0 0-.771-.77zm-12.1 53.33H24.79c-.43 0-.77-.34-.77-.77a.77.77 0 0 1 .77-.771h50.42a.771.771 0 0 1 0 1.541zm-17.4-26.68c0 4.3-3.51 7.8-7.81 7.8-4.31 0-7.81-3.5-7.81-7.8v-8.11h15.62v8.11zm28.73-11c0 2.8-2.26 5.08-5.06 5.109H59.34V55.65a.762.762 0 0 0-.76-.771H41.42a.77.77 0 0 0-.77.771v2.989H18.52a5.114 5.114 0 0 1-5.06-5.109V39.41h73.08v14.12z"/><path d="M50 68.15a3.625 3.625 0 0 0 0-7.25 3.625 3.625 0 0 0 0 7.25zM40.02 9.83c-.05.05-.11.09-.16.15a4.11 4.11 0 0 0-1.13 2.92l.11 5.87.06 12.07v.45l.04 1.31c.02.89.38 1.71 1.02 2.32.6.58 1.38.89 2.21.89h.08c.95-.03 1.79-.47 2.36-1.14a3.304 3.304 0 0 0 2.63 1.29h.09c.89-.02 1.72-.39 2.34-1.04.06-.06.11-.13.17-.2a3.286 3.286 0 0 0 2.59 1.24h.08a3.282 3.282 0 0 0 2.51-1.24c.091.11.19.22.29.32.631.6 1.44.92 2.301.92h.09c.89-.02 1.72-.39 2.34-1.04.61-.64.94-1.49.92-2.37v-1.71l-.02-12.25a.76.76 0 0 0-.761-.76h-.01a.76.76 0 0 0-.76.76l.01 12.25v1.74c.01.48-.16.94-.5 1.29-.33.35-.78.54-1.26.56-.48.01-.94-.17-1.29-.5-.351-.33-.55-.78-.561-1.26l-.029-1.33-.011-.47v-.07c-.01-.04-.01-.08-.02-.12v-.01a.763.763 0 0 0-.75-.59h-.069c-.029 0-.06.01-.09.01-.02.01-.04.02-.07.02-.02.01-.05.02-.069.03-.021.01-.05.02-.07.04l-.06.03c-.021.02-.04.04-.07.05-.01.02-.03.03-.04.04-.02.03-.04.05-.06.08a.11.11 0 0 0-.03.04.369.369 0 0 0-.05.09.11.11 0 0 0-.03.04l-.03.1c0 .02-.01.03-.01.04-.01.04-.01.08-.01.12 0 .01-.01.02-.01.03v1.74c.02.48-.16.94-.49 1.29s-.78.55-1.271.56c-.479.01-.93-.16-1.279-.5-.36-.33-.551-.78-.57-1.26l-.03-1.33-.01-.5v-.07c-.01-.03-.01-.06-.01-.08-.011-.01-.011-.02-.011-.04a.77.77 0 0 0-.74-.57h-.07c-.03.01-.06.01-.09.02-.02 0-.04.01-.06.01l-.09.03c-.01.01-.03.02-.05.03-.02.01-.05.03-.08.04l-.04.04c-.02.02-.05.04-.07.06l-.04.04c-.02.03-.04.05-.05.07l-.03.06c-.02.02-.03.05-.04.07-.01.02-.02.05-.02.07-.01.02-.02.05-.03.08 0 .02 0 .05-.01.07v1.81c.01.48-.17.94-.5 1.29-.33.35-.78.55-1.26.56-.48.01-.94-.16-1.29-.5-.35-.33-.55-.78-.56-1.26l-.04-1.33v-.56a.77.77 0 0 0-1.54 0v1.7c.03.97-.72 1.78-1.65 1.8-.44.01-.87-.15-1.19-.46-.35-.33-.54-.77-.55-1.25l-.04-1.31v-.49l-.06-12.01-.1-5.89c-.02-.68.23-1.33.7-1.83.48-.5 1.11-.78 1.8-.8h.01l14.36-.36 2.851 2.49c1.81 1.61 4.68 4.73 4.68 6.23v7.31c0 .43.35.77.771.77.43 0 .77-.34.77-.77V18.6c0-2.67-4.67-6.9-5.21-7.38l-1.89-1.66c.33-.16.64-.38.899-.65.57-.6.87-1.39.851-2.21-.04-1.69-1.471-3.07-3.17-3.02l-16.182.41c-.83.02-1.6.36-2.17.96-.57.6-.87 1.38-.85 2.21.03 1.08.64 2.04 1.53 2.57z"/><text y="115" font-size="5" font-weight="bold" font-family="'Helvetica Neue', Helvetica, Arial-Unicode, Arial, Sans-serif">Created by Cuby Design</text><text y="120" font-size="5" font-weight="bold" font-family="'Helvetica Neue', Helvetica, Arial-Unicode, Arial, Sans-serif">from the Noun Project</text></svg>